PathFileType	4	(X/Y/Z)	C:/Users/beibeiliu/ov580/test_trc/User3\sequence.38_training_dense_left.trc
DataRate	CameraRate	NumFrames	NumMarkers	Units	OrigDataRate	OrigDataStartFrame	OrigNumFrames
120	120	15	19	mm	120	30	89
Frame#	Time	ThumbCMC			ThumbMCP			ThumbIP			ThumbTip			IndexMCP			IndexPIP			IndexTip			MiddleMCP			MiddlePIP			MiddleTip			RingMCP			RingPIP			RingTip			PinkyMCP			PinkyPIP			PinkyTip			BackHand1			BackHand2			BackHand3	
		X0	Y0	Z0	X1	Y1	Z1	X2	Y2	Z2	X3	Y3	Z3	X4	Y4	Z4	X5	Y5	Z5	X6	Y6	Z6	X7	Y7	Z7	X8	Y8	Z8	X9	Y9	Z9	X10	Y10	Z10	X11	Y11	Z11	X12	Y12	Z12	X13	Y13	Z13	X14	Y14	Z14	X15	Y15	Z15	X16	Y16	Z16	X17	Y17	Z17	X18	Y18	Z18	
29	0.241667	-104.535	0.421525	0.636714	-89.8237	-11.1828	-23.3875	-68.2365	-20.0039	-42.9851	-58.4605	-30.0027	-60.5542	-131.492	20.4449	-73.0364	-130.521	12.359	-102.638	-129.619	-5.94531	-126.394	-152.575	24.9916	-79.0389	-151.032	14.8252	-109.374	-147.454	-13.2151	-133.496	-165.935	17.2469	-71.3525	-167.664	10.6004	-99.0369	-170.204	-7.01403	-120.454	-177.929	6.11919	-55.3192	-179.934	3.51475	-81.2803	-177.632	-4.3246	-103.065	-163.816	23.3261	-15.2171	-164.694	20.2373	12.1341	-133.491	27.8085	-4.27998	
30	0.25	-106.037	1.64168	-3.24995	-84.1985	-10.0763	-24.1095	-72.2017	-20.6369	-43.6671	-59.2172	-29.3116	-63.5441	-126.394	21.8461	-77.9538	-130.797	13.1445	-100.77	-131.882	-6.25915	-126.587	-150.521	24.4926	-76.3263	-150.836	15.4213	-109.442	-148.468	-9.89108	-130.699	-165.367	19.244	-72.5575	-169.049	10.6429	-100.194	-163.404	-7.07989	-121.679	-178.57	6.93166	-57.5814	-180.288	3.58289	-78.8995	-177.6	-3.94174	-106.133	-167.818	25.186	-18.2886	-165.827	20.7138	13.1148	-134.364	28.493	-5.54248	
31	0.258333	-103.956	4.56097	-0.517682	-82.2596	-8.23969	-22.159	-70.9742	-16.6481	-43.1134	-55.2962	-25.5437	-59.8894	-128.797	24.0845	-77.0008	-126.764	16.2553	-102.259	-127.531	-1.29788	-125.495	-147.817	28.4315	-80.6327	-147.653	17.9661	-109.895	-144.009	-7.34295	-133.868	-166.949	19.9526	-69.7408	-166.582	15.4186	-96.1218	-164.746	-3.70836	-121.234	-180.669	8.52711	-54.4685	-181.644	6.08529	-81.1365	-179.01	-0.594299	-100.713	-165.528	27.6274	-16.848	-162.673	22.7224	13.9679	-129.141	30.2557	-6.63786	
32	0.266667	-104.634	5.24714	-2.08423	-86.1377	-6.81183	-21.6573	-69.0204	-16.6239	-43.521	-60.3345	-24.7527	-62.0756	-126.508	26.2136	-72.9942	-130.166	16.7193	-102.842	-132.266	0.301656	-124.936	-151.061	28.8049	-76.8514	-151.334	21.6096	-108.475	-146.719	-4.80509	-132.157	-165.467	23.0305	-69.4353	-169.701	17.892	-95.891	-168.209	-0.739236	-119.427	-182.84	10.09	-56.0163	-179.033	8.14048	-79.7219	-178.487	-0.613643	-103.796	-167.528	28.8203	-17.626	-163.562	23.9269	13.9405	-136.083	29.4933	-5.18192	
33	0.275	-103.465	4.6892	-1.22733	-86.7755	-8.08839	-23.6489	-71.001	-17.9713	-48.6587	-62.9941	-26.2917	-61.9371	-132.687	23.8886	-73.7753	-134.752	16.5509	-102.767	-134.83	0.145721	-125.517	-151.108	28.6991	-80.0034	-153.06	21.0028	-108.392	-150.113	-2.84092	-131.663	-167.028	22.6616	-71.8511	-171.092	17.239	-96.4292	-170.709	-2.30421	-121.524	-184.213	11.553	-59.347	-181.009	7.42975	-80.394	-184.298	1.77413	-102.523	-165.485	28.9195	-18.1708	-165.634	25.5977	9.66057	-136.638	31.4165	-6.85973	
34	0.283333	-106.266	3.78544	-1.17338	-86.8622	-9.74904	-21.8002	-73.9492	-18.3517	-44.9504	-64.884	-26.4126	-64.6792	-130.517	24.9667	-73.189	-134.926	15.8371	-105.563	-136.504	4.36939	-123.992	-151.038	30.4507	-80.7218	-153.859	21.0738	-110.534	-150.942	-4.55449	-135.13	-169.817	23.3893	-70.0885	-168.661	18.7288	-99.5819	-170.693	-0.429944	-123.096	-184.71	10.257	-53.992	-182.181	9.45936	-81.4849	-180.748	3.96847	-103.628	-165.815	28.3644	-17.7966	-166.623	24.0854	13.8032	-137.945	30.1849	-6.76442	
35	0.291667	-103.73	3.33156	0.396646	-86.7152	-7.33045	-25.7832	-75.4234	-16.24	-47.0202	-66.6268	-25.7675	-67.4385	-128.456	28.0196	-74.8038	-129.307	19.9683	-106.658	-133.187	8.35686	-124.781	-153.523	32.4015	-80.2967	-150.534	25.0122	-110.379	-148.153	2.89217	-136.216	-168.996	24.974	-70.532	-168.658	21.213	-100.466	-168.139	5.545	-121.968	-182.611	14.7334	-58.9148	-181.327	12.6561	-82.3923	-183.491	7.38051	-101.924	-167.659	29.9951	-19.5096	-167.559	25.899	11.9415	-135.905	28.8765	-5.11204	
36	0.3	-101.431	4.55515	-0.41664	-86.5351	-6.05955	-26.6305	-75.0779	-15.1907	-48.8128	-63.7106	-24.9744	-70.6693	-130.35	27.7238	-74.171	-131.544	24.1784	-100.938	-134.671	11.8224	-125.004	-149.406	33.9627	-77.0316	-147.676	30.3662	-107.292	-150.91	8.88758	-134.65	-166.47	25.4674	-68.0469	-167	24.2055	-95.4657	-165.469	7.72046	-125.455	-178.416	14.5644	-58.4267	-178.136	13.9185	-80.1466	-182.169	10.0221	-104.534	-167.365	27.6966	-16.1691	-164.806	26.2775	10.8925	-134.164	29.4948	-5.57596	
37	0.308333	-102.078	5.5891	-3.13584	-86.3668	-4.3426	-30.2045	-78.4665	-14.5253	-52.4861	-74.1148	-24.5286	-76.5823	-128.563	30.4184	-77.545	-128.361	27.7414	-104.307	-127.997	17.4991	-128.203	-149.833	34.1019	-74.8812	-149.756	32.3418	-107.031	-151.408	14.4768	-135.034	-166.716	26.7366	-67.599	-164.789	26.3728	-98.9041	-169.817	11.8247	-126.108	-180.559	14.4031	-52.4618	-181.725	15.0372	-77.6047	-179.565	14.9434	-98.8264	-160.578	28.5899	-14.4581	-165.713	26.4591	12.6953	-128.624	32.276	-7.46217	
38	0.316667	-104.033	5.80254	-2.63727	-85.5466	-5.28694	-30.949	-85.7753	-14.4101	-59.9945	-97.3165	-24.5082	-78.0715	-124.119	31.9709	-72.1041	-121.132	32.9632	-103.439	-126.449	26.4804	-127.999	-144.015	35.584	-75.045	-148.474	35.1175	-106.831	-151.052	21.8281	-139.635	-161.855	27.2522	-69.2968	-164.966	28.0612	-96.2952	-167.659	18.7007	-123.014	-177.187	13.9378	-55.3687	-181.895	15.1762	-77.0778	-183.124	15.3689	-103.844	-163.152	26.3509	-15.4583	-159.605	26.3448	11.411	-127.691	32.9561	-6.28853	
39	0.325	-105.063	3.46829	-2.44317	-92.1142	-6.27178	-30.5965	-100.401	-15.979	-63.5457	-123.038	-24.9605	-78.9003	-122.92	30.1844	-76.8965	-120.248	32.8986	-99.1803	-121.89	30.7928	-128.696	-146.486	32.713	-79.2396	-145.591	33.1885	-108.603	-147.274	27.8915	-136.529	-159.133	22.9109	-70.0378	-163.148	23.8635	-97.5	-167.436	19.6829	-126.053	-176.793	11.7989	-57.9638	-179.185	13.0022	-79.2378	-180.476	12.7677	-103.905	-159.338	26.8121	-17.4374	-161.788	23.5981	10.1623	-126.157	29.5217	-5.40203	
40	0.333333	-99.8558	1.69179	-4.11684	-94.8678	-7.2964	-35.4785	-108.918	-16.3646	-63.4246	-135.365	-24.6807	-71.9196	-123.021	27.7581	-77.187	-119.566	29.5662	-101.641	-124.247	30.1588	-125.724	-142.704	28.7415	-80.2088	-141.196	30.6252	-106.946	-137.011	29.0208	-139.233	-160.295	19.6074	-71.9526	-160.159	22.2148	-96.6415	-160.792	19.7237	-126.785	-173.47	8.92835	-55.5296	-178.902	10.4607	-78.0363	-177.918	15.4711	-100.524	-162.618	24.4051	-22.2394	-160.504	23.814	8.91424	-128.675	29.4498	-7.3444	
41	0.341667	-100.822	3.76025	-2.7497	-96.1764	-7.79241	-32.5879	-115.44	-16.4025	-64.0229	-143.097	-20.6418	-63.2324	-119.731	27.0489	-74.3382	-119.211	30.1763	-98.4091	-124.387	30.8593	-123.427	-141.792	29.0466	-81.6762	-138.728	31.1233	-107.753	-140.284	30.5926	-138.746	-160.42	19.8653	-71.7533	-156.643	22.1536	-96.5431	-157.201	21.6709	-124.285	-177.033	9.3746	-58.0175	-177.681	11.4922	-79.2519	-181.574	17.5309	-102.645	-160.17	24.8921	-21.6141	-158.2	24.9214	7.55729	-126.426	30.0089	-6.46868	
42	0.35	-105.119	5.96678	-6.05571	-95.9632	-3.39937	-37.6969	-121.165	-9.17867	-61.2411	-144.191	-14.8733	-60.6567	-117.092	32.9172	-74.6323	-118.618	35.5386	-103.052	-121.502	38.2484	-129.104	-140.056	33.3467	-84.4125	-139.439	35.6988	-109.779	-134.238	37.5208	-142.667	-158.877	24.1218	-73.6735	-160.118	27.5988	-100.417	-156.794	29.2535	-125.783	-176.172	14.0848	-59.9654	-175.869	18.4163	-80.9174	-177.61	25.6046	-101.092	-159.876	28.8628	-20.8815	-161	27.5242	7.1129	-128.537	32.9155	-7.51188	
43	0.358333	-106.712	13.3992	-9.0853	-102.73	5.85358	-41.5011	-120.671	-0.579502	-65.758	-151.89	-4.48365	-65.8623	-124.293	42.8986	-80.0033	-118.665	47.9056	-103.147	-123.083	50.797	-127.555	-143.602	43.5323	-84.2885	-137.718	48.7007	-114.687	-137.777	48.9306	-143.242	-158.924	36.8683	-80.6638	-159.732	40.5338	-101.105	-161.561	42.9153	-129.859	-174.541	27.1987	-65.2528	-178.121	31.162	-84.1338	-179.683	38.4365	-102.356	-160.92	39.0678	-27.8838	-166.941	36.0679	3.02542	-129.325	41.3294	-10.5277	
